<mxfile host="www.draw.io" modified="2019-11-21T16:33:43.569Z" agent="Mozilla/5.0 (Macintosh; Intel Mac OS X 10_14_6) AppleWebKit/537.36 (KHTML, like Gecko) Chrome/78.0.3904.97 Safari/537.36" etag="8pD2IpcXY88KDepbOiAS" version="12.2.8" type="github" pages="1">
  <diagram id="VRZPe4ht6FZnXAh3OC5D" name="Page-1">
    <mxGraphModel dx="2239" dy="757" grid="1" gridSize="10" guides="1" tooltips="1" connect="1" arrows="1" fold="1" page="1" pageScale="1" pageWidth="827" pageHeight="1169" math="0" shadow="0">
      <root>
        <mxCell id="0"/>
        <mxCell id="1" parent="0"/>
        <mxCell id="8XrIqm7YhIDDk8eNb9Pi-9" value="" style="ellipse;shape=cloud;whiteSpace=wrap;html=1;strokeWidth=4;" vertex="1" parent="1">
          <mxGeometry x="150" y="88" width="420" height="280" as="geometry"/>
        </mxCell>
        <mxCell id="8XrIqm7YhIDDk8eNb9Pi-2" value="&lt;font size=&quot;1&quot;&gt;&lt;b style=&quot;font-size: 29px&quot;&gt;U&lt;/b&gt;&lt;/font&gt;" style="ellipse;whiteSpace=wrap;html=1;strokeWidth=4;" vertex="1" parent="1">
          <mxGeometry x="340" y="208" width="40" height="40" as="geometry"/>
        </mxCell>
        <mxCell id="8XrIqm7YhIDDk8eNb9Pi-12" style="rounded=0;orthogonalLoop=1;jettySize=auto;html=1;exitX=0;exitY=0;exitDx=0;exitDy=0;entryX=1;entryY=0.5;entryDx=0;entryDy=0;endArrow=none;endFill=0;strokeWidth=4;" edge="1" parent="1" source="8XrIqm7YhIDDk8eNb9Pi-3" target="8XrIqm7YhIDDk8eNb9Pi-2">
          <mxGeometry relative="1" as="geometry"/>
        </mxCell>
        <mxCell id="8XrIqm7YhIDDk8eNb9Pi-3" value="&lt;font size=&quot;1&quot;&gt;&lt;b style=&quot;font-size: 29px&quot;&gt;U&lt;/b&gt;&lt;/font&gt;" style="ellipse;whiteSpace=wrap;html=1;strokeWidth=4;" vertex="1" parent="1">
          <mxGeometry x="420" y="248" width="40" height="40" as="geometry"/>
        </mxCell>
        <mxCell id="8XrIqm7YhIDDk8eNb9Pi-15" style="edgeStyle=none;rounded=0;orthogonalLoop=1;jettySize=auto;html=1;exitX=0.5;exitY=1;exitDx=0;exitDy=0;entryX=0;entryY=0.5;entryDx=0;entryDy=0;endArrow=none;endFill=0;strokeWidth=4;" edge="1" parent="1" source="8XrIqm7YhIDDk8eNb9Pi-4" target="8XrIqm7YhIDDk8eNb9Pi-2">
          <mxGeometry relative="1" as="geometry"/>
        </mxCell>
        <mxCell id="8XrIqm7YhIDDk8eNb9Pi-4" value="&lt;font size=&quot;1&quot;&gt;&lt;b style=&quot;font-size: 29px&quot;&gt;U&lt;/b&gt;&lt;/font&gt;" style="ellipse;whiteSpace=wrap;html=1;strokeWidth=4;" vertex="1" parent="1">
          <mxGeometry x="260" y="168" width="40" height="40" as="geometry"/>
        </mxCell>
        <mxCell id="8XrIqm7YhIDDk8eNb9Pi-13" style="edgeStyle=none;rounded=0;orthogonalLoop=1;jettySize=auto;html=1;exitX=0.5;exitY=1;exitDx=0;exitDy=0;endArrow=none;endFill=0;strokeWidth=4;" edge="1" parent="1" source="8XrIqm7YhIDDk8eNb9Pi-5" target="8XrIqm7YhIDDk8eNb9Pi-3">
          <mxGeometry relative="1" as="geometry"/>
        </mxCell>
        <mxCell id="8XrIqm7YhIDDk8eNb9Pi-14" style="edgeStyle=none;rounded=0;orthogonalLoop=1;jettySize=auto;html=1;exitX=0;exitY=0.5;exitDx=0;exitDy=0;endArrow=none;endFill=0;strokeWidth=4;" edge="1" parent="1" source="8XrIqm7YhIDDk8eNb9Pi-5" target="8XrIqm7YhIDDk8eNb9Pi-4">
          <mxGeometry relative="1" as="geometry"/>
        </mxCell>
        <mxCell id="8XrIqm7YhIDDk8eNb9Pi-5" value="&lt;font size=&quot;1&quot;&gt;&lt;b style=&quot;font-size: 29px&quot;&gt;U&lt;/b&gt;&lt;/font&gt;" style="ellipse;whiteSpace=wrap;html=1;strokeWidth=4;" vertex="1" parent="1">
          <mxGeometry x="420" y="168" width="40" height="40" as="geometry"/>
        </mxCell>
        <mxCell id="8XrIqm7YhIDDk8eNb9Pi-11" style="edgeStyle=orthogonalEdgeStyle;rounded=0;orthogonalLoop=1;jettySize=auto;html=1;exitX=1;exitY=0.5;exitDx=0;exitDy=0;endArrow=none;endFill=0;strokeWidth=4;" edge="1" parent="1" source="8XrIqm7YhIDDk8eNb9Pi-6" target="8XrIqm7YhIDDk8eNb9Pi-3">
          <mxGeometry relative="1" as="geometry"/>
        </mxCell>
        <mxCell id="8XrIqm7YhIDDk8eNb9Pi-16" style="edgeStyle=orthogonalEdgeStyle;rounded=0;orthogonalLoop=1;jettySize=auto;html=1;exitX=0.5;exitY=1;exitDx=0;exitDy=0;entryX=0.925;entryY=0.675;entryDx=0;entryDy=0;endArrow=none;endFill=0;curved=1;entryPerimeter=0;strokeWidth=4;" edge="1" parent="1" source="8XrIqm7YhIDDk8eNb9Pi-6" target="8XrIqm7YhIDDk8eNb9Pi-5">
          <mxGeometry relative="1" as="geometry">
            <Array as="points">
              <mxPoint x="280" y="318"/>
              <mxPoint x="470" y="318"/>
              <mxPoint x="470" y="202"/>
              <mxPoint x="457" y="202"/>
            </Array>
          </mxGeometry>
        </mxCell>
        <mxCell id="8XrIqm7YhIDDk8eNb9Pi-6" value="&lt;font size=&quot;1&quot;&gt;&lt;b style=&quot;font-size: 29px&quot;&gt;U&lt;/b&gt;&lt;/font&gt;" style="ellipse;whiteSpace=wrap;html=1;strokeWidth=4;" vertex="1" parent="1">
          <mxGeometry x="260" y="248" width="40" height="40" as="geometry"/>
        </mxCell>
        <mxCell id="8XrIqm7YhIDDk8eNb9Pi-46" style="edgeStyle=none;rounded=0;orthogonalLoop=1;jettySize=auto;html=1;exitX=0.75;exitY=0;exitDx=0;exitDy=0;endArrow=blockThin;endFill=1;strokeWidth=4;" edge="1" parent="1" source="8XrIqm7YhIDDk8eNb9Pi-17" target="8XrIqm7YhIDDk8eNb9Pi-37">
          <mxGeometry relative="1" as="geometry"/>
        </mxCell>
        <mxCell id="8XrIqm7YhIDDk8eNb9Pi-17" value="" style="verticalLabelPosition=bottom;verticalAlign=top;html=1;shape=process;whiteSpace=wrap;rounded=1;size=0.22488038277511962;arcSize=6;strokeWidth=5;" vertex="1" parent="1">
          <mxGeometry x="-410" y="330" width="230" height="110" as="geometry"/>
        </mxCell>
        <mxCell id="8XrIqm7YhIDDk8eNb9Pi-41" style="rounded=0;orthogonalLoop=1;jettySize=auto;html=1;exitX=1;exitY=0.5;exitDx=0;exitDy=0;endArrow=blockThin;endFill=1;strokeWidth=4;" edge="1" parent="1" source="8XrIqm7YhIDDk8eNb9Pi-23" target="8XrIqm7YhIDDk8eNb9Pi-37">
          <mxGeometry relative="1" as="geometry"/>
        </mxCell>
        <mxCell id="8XrIqm7YhIDDk8eNb9Pi-23" value="" style="shape=image;html=1;verticalAlign=top;verticalLabelPosition=bottom;labelBackgroundColor=#ffffff;imageAspect=0;aspect=fixed;image=https://cdn3.iconfinder.com/data/icons/streamline-icon-set-free-pack/48/Streamline-17-128.png;strokeWidth=1;" vertex="1" parent="1">
          <mxGeometry x="-300" y="70" width="98" height="98" as="geometry"/>
        </mxCell>
        <mxCell id="8XrIqm7YhIDDk8eNb9Pi-25" value="" style="shape=image;html=1;verticalAlign=top;verticalLabelPosition=bottom;labelBackgroundColor=#ffffff;imageAspect=0;aspect=fixed;image=https://cdn3.iconfinder.com/data/icons/streamline-icon-set-free-pack/48/Streamline-17-128.png;strokeWidth=4;" vertex="1" parent="1">
          <mxGeometry x="980" y="248" width="98" height="98" as="geometry"/>
        </mxCell>
        <mxCell id="8XrIqm7YhIDDk8eNb9Pi-27" value="&lt;font size=&quot;1&quot;&gt;&lt;b style=&quot;font-size: 29px&quot;&gt;U&lt;/b&gt;&lt;/font&gt;" style="ellipse;whiteSpace=wrap;html=1;strokeWidth=4;" vertex="1" parent="1">
          <mxGeometry x="-414" y="564" width="40" height="40" as="geometry"/>
        </mxCell>
        <mxCell id="8XrIqm7YhIDDk8eNb9Pi-28" value="URSULA NODE" style="text;html=1;resizable=0;points=[];autosize=1;align=left;verticalAlign=top;spacingTop=-4;" vertex="1" parent="1">
          <mxGeometry x="-364" y="574" width="100" height="20" as="geometry"/>
        </mxCell>
        <mxCell id="8XrIqm7YhIDDk8eNb9Pi-53" style="edgeStyle=none;rounded=0;orthogonalLoop=1;jettySize=auto;html=1;entryX=0.502;entryY=0.939;entryDx=0;entryDy=0;entryPerimeter=0;endArrow=blockThin;endFill=1;strokeWidth=4;startArrow=blockThin;startFill=1;" edge="1" parent="1" source="8XrIqm7YhIDDk8eNb9Pi-29" target="8XrIqm7YhIDDk8eNb9Pi-9">
          <mxGeometry relative="1" as="geometry"/>
        </mxCell>
        <mxCell id="8XrIqm7YhIDDk8eNb9Pi-29" value="" style="shape=image;html=1;verticalAlign=top;verticalLabelPosition=bottom;labelBackgroundColor=#ffffff;imageAspect=0;aspect=fixed;image=https://cdn3.iconfinder.com/data/icons/popular-cryptocurrencies/80/Cryptocurrency_token_coin_v3-01-128.png;strokeWidth=1;" vertex="1" parent="1">
          <mxGeometry x="296" y="510" width="128" height="128" as="geometry"/>
        </mxCell>
        <mxCell id="8XrIqm7YhIDDk8eNb9Pi-30" value="Alice.js" style="text;html=1;resizable=0;points=[];autosize=1;align=left;verticalAlign=top;spacingTop=-4;fontStyle=1" vertex="1" parent="1">
          <mxGeometry x="-276" y="119" width="50" height="20" as="geometry"/>
        </mxCell>
        <mxCell id="8XrIqm7YhIDDk8eNb9Pi-31" value="&lt;b&gt;Alice.py&lt;/b&gt;" style="text;html=1;resizable=0;points=[];autosize=1;align=left;verticalAlign=top;spacingTop=-4;" vertex="1" parent="1">
          <mxGeometry x="-325" y="355" width="60" height="20" as="geometry"/>
        </mxCell>
        <mxCell id="8XrIqm7YhIDDk8eNb9Pi-35" value="&lt;b&gt;Bob.js&lt;/b&gt;" style="text;html=1;resizable=0;points=[];autosize=1;align=left;verticalAlign=top;spacingTop=-4;" vertex="1" parent="1">
          <mxGeometry x="1005" y="297" width="50" height="20" as="geometry"/>
        </mxCell>
        <mxCell id="8XrIqm7YhIDDk8eNb9Pi-47" style="edgeStyle=none;rounded=0;orthogonalLoop=1;jettySize=auto;html=1;endArrow=blockThin;endFill=1;strokeWidth=4;" edge="1" parent="1" source="8XrIqm7YhIDDk8eNb9Pi-37" target="8XrIqm7YhIDDk8eNb9Pi-9">
          <mxGeometry relative="1" as="geometry"/>
        </mxCell>
        <mxCell id="8XrIqm7YhIDDk8eNb9Pi-48" style="edgeStyle=none;rounded=0;orthogonalLoop=1;jettySize=auto;html=1;endArrow=blockThin;endFill=1;strokeWidth=4;" edge="1" parent="1" source="8XrIqm7YhIDDk8eNb9Pi-37" target="8XrIqm7YhIDDk8eNb9Pi-29">
          <mxGeometry relative="1" as="geometry"/>
        </mxCell>
        <mxCell id="8XrIqm7YhIDDk8eNb9Pi-37" value="" style="outlineConnect=0;fontColor=#232F3E;gradientColor=none;fillColor=#232F3E;strokeColor=none;dashed=0;verticalLabelPosition=bottom;verticalAlign=top;align=center;html=1;fontSize=12;fontStyle=0;aspect=fixed;pointerEvents=1;shape=mxgraph.aws4.traditional_server;strokeWidth=2;" vertex="1" parent="1">
          <mxGeometry x="-47" y="151" width="93" height="160" as="geometry"/>
        </mxCell>
        <mxCell id="8XrIqm7YhIDDk8eNb9Pi-38" value="NU middleware.py" style="text;html=1;resizable=0;points=[];autosize=1;align=left;verticalAlign=top;spacingTop=-4;fontStyle=1" vertex="1" parent="1">
          <mxGeometry x="-350" y="395" width="110" height="20" as="geometry"/>
        </mxCell>
        <mxCell id="8XrIqm7YhIDDk8eNb9Pi-44" value="NU API" style="text;html=1;resizable=0;points=[];autosize=1;align=center;verticalAlign=top;spacingTop=-4;fontStyle=1" vertex="1" parent="1">
          <mxGeometry x="-25" y="320" width="50" height="20" as="geometry"/>
        </mxCell>
        <mxCell id="8XrIqm7YhIDDk8eNb9Pi-49" value="Benign&amp;nbsp; Process" style="text;html=1;resizable=0;points=[];autosize=1;align=center;verticalAlign=top;spacingTop=-4;fontStyle=0;rotation=-90;" vertex="1" parent="1">
          <mxGeometry x="-435" y="375" width="100" height="20" as="geometry"/>
        </mxCell>
        <mxCell id="8XrIqm7YhIDDk8eNb9Pi-54" value="" style="outlineConnect=0;fontColor=#232F3E;gradientColor=none;fillColor=#232F3E;strokeColor=none;dashed=0;verticalLabelPosition=bottom;verticalAlign=top;align=center;html=1;fontSize=12;fontStyle=0;aspect=fixed;pointerEvents=1;shape=mxgraph.aws4.traditional_server;strokeWidth=2;" vertex="1" parent="1">
          <mxGeometry x="680" y="160" width="93" height="160" as="geometry"/>
        </mxCell>
        <mxCell id="8XrIqm7YhIDDk8eNb9Pi-57" value="" style="endArrow=classic;startArrow=classic;html=1;strokeWidth=4;" edge="1" parent="1">
          <mxGeometry width="50" height="50" relative="1" as="geometry">
            <mxPoint x="540" y="231" as="sourcePoint"/>
            <mxPoint x="670" y="231" as="targetPoint"/>
          </mxGeometry>
        </mxCell>
        <mxCell id="8XrIqm7YhIDDk8eNb9Pi-58" value="" style="endArrow=classic;startArrow=classic;html=1;strokeWidth=4;" edge="1" parent="1">
          <mxGeometry width="50" height="50" relative="1" as="geometry">
            <mxPoint x="777" y="227" as="sourcePoint"/>
            <mxPoint x="960" y="170" as="targetPoint"/>
          </mxGeometry>
        </mxCell>
        <mxCell id="8XrIqm7YhIDDk8eNb9Pi-60" value="" style="endArrow=classic;startArrow=classic;html=1;strokeWidth=4;" edge="1" parent="1">
          <mxGeometry width="50" height="50" relative="1" as="geometry">
            <mxPoint x="780" y="245" as="sourcePoint"/>
            <mxPoint x="960" y="300" as="targetPoint"/>
          </mxGeometry>
        </mxCell>
        <mxCell id="8XrIqm7YhIDDk8eNb9Pi-61" value="" style="verticalLabelPosition=bottom;verticalAlign=top;html=1;shape=process;whiteSpace=wrap;rounded=1;size=0.22488038277511962;arcSize=6;strokeWidth=5;" vertex="1" parent="1">
          <mxGeometry x="975.5" y="113" width="230" height="110" as="geometry"/>
        </mxCell>
        <mxCell id="8XrIqm7YhIDDk8eNb9Pi-62" value="&lt;b&gt;Bob.py&lt;/b&gt;" style="text;html=1;resizable=0;points=[];autosize=1;align=left;verticalAlign=top;spacingTop=-4;" vertex="1" parent="1">
          <mxGeometry x="1060.5" y="138" width="60" height="20" as="geometry"/>
        </mxCell>
        <mxCell id="8XrIqm7YhIDDk8eNb9Pi-63" value="NU middleware.py" style="text;html=1;resizable=0;points=[];autosize=1;align=left;verticalAlign=top;spacingTop=-4;fontStyle=1" vertex="1" parent="1">
          <mxGeometry x="1035.5" y="178" width="110" height="20" as="geometry"/>
        </mxCell>
        <mxCell id="8XrIqm7YhIDDk8eNb9Pi-64" value="Benign&amp;nbsp; Process" style="text;html=1;resizable=0;points=[];autosize=1;align=center;verticalAlign=top;spacingTop=-4;fontStyle=0;rotation=-90;" vertex="1" parent="1">
          <mxGeometry x="950.5" y="158" width="100" height="20" as="geometry"/>
        </mxCell>
      </root>
    </mxGraphModel>
  </diagram>
</mxfile>
